<svg width="40" height="40" viewBox="0 0 40 40" fill="none" xmlns="http://www.w3.org/2000/svg">
<g id="acute">
<mask id="mask0_696_3069" style="mask-type:alpha" maskUnits="userSpaceOnUse" x="0" y="0" width="40" height="40">
<rect id="Bounding box" width="40" height="40" fill="#D9D9D9"/>
</mask>
<g mask="url(#mask0_696_3069)">
<path id="acute_2" d="M25 33.3334C21.2778 33.3334 18.125 32.0417 15.5417 29.4584C12.9584 26.875 11.6667 23.7222 11.6667 20C11.6667 16.3056 12.9584 13.1597 15.5417 10.5625C18.125 7.9653 21.2778 6.66669 25 6.66669C28.6945 6.66669 31.8403 7.9653 34.4375 10.5625C37.0347 13.1597 38.3334 16.3056 38.3334 20C38.3334 23.7222 37.0347 26.875 34.4375 29.4584C31.8403 32.0417 28.6945 33.3334 25 33.3334ZM25 30C27.7778 30 30.1389 29.0278 32.0834 27.0834C34.0278 25.1389 35 22.7778 35 20C35 17.2222 34.0278 14.8611 32.0834 12.9167C30.1389 10.9722 27.7778 10 25 10C22.2222 10 19.8611 10.9722 17.9167 12.9167C15.9722 14.8611 15 17.2222 15 20C15 22.7778 15.9722 25.1389 17.9167 27.0834C19.8611 29.0278 22.2222 30 25 30ZM28.7917 26.2084L31.1667 23.8334L26.6667 19.3334V13.3334H23.3334V20.7084L28.7917 26.2084ZM3.33335 15V11.6667H10V15H3.33335ZM1.66669 21.6667V18.3334H10V21.6667H1.66669ZM3.33335 28.3334V25H10V28.3334H3.33335Z" fill="white"/>
</g>
</g>
</svg>
