<svg width="24" height="25" viewBox="0 0 24 25" fill="none" xmlns="http://www.w3.org/2000/svg">
<g id="acute">
<mask id="mask0_696_2889" style="mask-type:alpha" maskUnits="userSpaceOnUse" x="0" y="0" width="24" height="25">
<rect id="Bounding box" y="0.274902" width="24" height="24" fill="#D9D9D9"/>
</mask>
<g mask="url(#mask0_696_2889)">
<path id="acute_2" d="M15 20.2749C12.7667 20.2749 10.875 19.4999 9.325 17.9499C7.775 16.3999 7 14.5082 7 12.2749C7 10.0582 7.775 8.17074 9.325 6.6124C10.875 5.05407 12.7667 4.2749 15 4.2749C17.2167 4.2749 19.1042 5.05407 20.6625 6.6124C22.2208 8.17074 23 10.0582 23 12.2749C23 14.5082 22.2208 16.3999 20.6625 17.9499C19.1042 19.4999 17.2167 20.2749 15 20.2749ZM15 18.2749C16.6667 18.2749 18.0833 17.6916 19.25 16.5249C20.4167 15.3582 21 13.9416 21 12.2749C21 10.6082 20.4167 9.19157 19.25 8.0249C18.0833 6.85824 16.6667 6.2749 15 6.2749C13.3333 6.2749 11.9167 6.85824 10.75 8.0249C9.58333 9.19157 9 10.6082 9 12.2749C9 13.9416 9.58333 15.3582 10.75 16.5249C11.9167 17.6916 13.3333 18.2749 15 18.2749ZM17.275 15.9999L18.7 14.5749L16 11.8749V8.2749H14V12.6999L17.275 15.9999ZM2 9.2749V7.2749H6V9.2749H2ZM1 13.2749V11.2749H6V13.2749H1ZM2 17.2749V15.2749H6V17.2749H2Z" fill="#4D85FF"/>
</g>
</g>
</svg>
