<svg width="40" height="41" viewBox="0 0 40 41" fill="none" xmlns="http://www.w3.org/2000/svg">
<g id="check_circle">
<mask id="mask0_696_2903" style="mask-type:alpha" maskUnits="userSpaceOnUse" x="0" y="0" width="40" height="41">
<rect id="Bounding box" y="0.274658" width="40" height="40" fill="#D9D9D9"/>
</mask>
<g mask="url(#mask0_696_2903)">
<path id="check_circle_2" d="M18.4607 28.358L30.2025 16.608L27.8708 14.2747L18.4607 23.6913L13.714 18.9413L11.3822 21.2747L18.4607 28.358ZM20.7924 37.358C18.4884 37.358 16.3232 36.9205 14.2969 36.0455C12.2705 35.1705 10.5078 33.983 9.00888 32.483C7.50993 30.983 6.32325 29.2191 5.44886 27.1913C4.57446 25.1635 4.13727 22.9969 4.13727 20.6913C4.13727 18.3858 4.57446 16.2191 5.44886 14.1913C6.32325 12.1635 7.50993 10.3997 9.00888 8.89966C10.5078 7.39966 12.2705 6.21216 14.2969 5.33716C16.3232 4.46216 18.4884 4.02466 20.7924 4.02466C23.0963 4.02466 25.2615 4.46216 27.2879 5.33716C29.3142 6.21216 31.0769 7.39966 32.5759 8.89966C34.0748 10.3997 35.2615 12.1635 36.1359 14.1913C37.0103 16.2191 37.4475 18.3858 37.4475 20.6913C37.4475 22.9969 37.0103 25.1635 36.1359 27.1913C35.2615 29.2191 34.0748 30.983 32.5759 32.483C31.0769 33.983 29.3142 35.1705 27.2879 36.0455C25.2615 36.9205 23.0963 37.358 20.7924 37.358Z" fill="white"/>
</g>
</g>
</svg>
