<svg width="33" height="32" viewBox="0 0 33 32" fill="none" xmlns="http://www.w3.org/2000/svg">
<g id="check_circle">
<mask id="mask0_171_4916" style="mask-type:alpha" maskUnits="userSpaceOnUse" x="0" y="0" width="33" height="32">
<rect id="Bounding box" x="0.5" width="32" height="32" fill="#D9D9D9"/>
</mask>
<g mask="url(#mask0_171_4916)">
<path id="check_circle_2" d="M14.6337 22.1334L24.0337 12.7334L22.167 10.8667L14.6337 18.4001L10.8337 14.6001L8.96699 16.4667L14.6337 22.1334ZM16.5003 29.3334C14.6559 29.3334 12.9225 28.9834 11.3003 28.2834C9.6781 27.5834 8.26699 26.6334 7.06699 25.4334C5.86699 24.2334 4.91699 22.8223 4.21699 21.2001C3.51699 19.5779 3.16699 17.8445 3.16699 16.0001C3.16699 14.1556 3.51699 12.4223 4.21699 10.8001C4.91699 9.17786 5.86699 7.76675 7.06699 6.56675C8.26699 5.36675 9.6781 4.41675 11.3003 3.71675C12.9225 3.01675 14.6559 2.66675 16.5003 2.66675C18.3448 2.66675 20.0781 3.01675 21.7003 3.71675C23.3225 4.41675 24.7337 5.36675 25.9337 6.56675C27.1337 7.76675 28.0837 9.17786 28.7837 10.8001C29.4837 12.4223 29.8337 14.1556 29.8337 16.0001C29.8337 17.8445 29.4837 19.5779 28.7837 21.2001C28.0837 22.8223 27.1337 24.2334 25.9337 25.4334C24.7337 26.6334 23.3225 27.5834 21.7003 28.2834C20.0781 28.9834 18.3448 29.3334 16.5003 29.3334Z" fill="#009A94"/>
</g>
</g>
</svg>
