<svg width="120" height="80" viewBox="0 0 120 80" fill="none" xmlns="http://www.w3.org/2000/svg">
<path d="M4.34935 48.9932C4.13052 48.9932 3.94024 48.9123 3.7785 48.7506C3.61676 48.5888 3.53589 48.3985 3.53589 48.1797V39.3886C3.53589 39.1698 3.61676 38.9795 3.7785 38.8178C3.94024 38.656 4.13052 38.5752 4.34935 38.5752H4.70613C4.9535 38.5752 5.18184 38.6418 5.39115 38.775C5.60046 38.9082 5.75268 39.0842 5.84783 39.303L8.34529 44.6975C8.34529 44.707 8.35005 44.7118 8.35956 44.7118C8.36907 44.7118 8.37383 44.707 8.37383 44.6975L10.8713 39.303C10.9664 39.0842 11.1187 38.9082 11.328 38.775C11.5373 38.6418 11.7656 38.5752 12.013 38.5752H12.4269C12.6457 38.5752 12.836 38.656 12.9977 38.8178C13.1594 38.9795 13.2403 39.1698 13.2403 39.3886V48.1797C13.2403 48.3985 13.1594 48.5888 12.9977 48.7506C12.836 48.9123 12.6457 48.9932 12.4269 48.9932H12.1129C11.8941 48.9932 11.7038 48.9123 11.542 48.7506C11.3803 48.5888 11.2994 48.3985 11.2994 48.1797V41.9717C11.2994 41.9622 11.2947 41.9575 11.2852 41.9575C11.2756 41.9575 11.2709 41.9622 11.2709 41.9717L9.55834 45.6394C9.45369 45.8583 9.29195 46.039 9.07312 46.1817C8.86381 46.3149 8.64023 46.3815 8.40237 46.3815H8.31675C8.07889 46.3815 7.85055 46.3149 7.63173 46.1817C7.42242 46.039 7.26543 45.8583 7.16078 45.6394L5.44823 41.9717C5.44823 41.9622 5.44347 41.9575 5.43396 41.9575C5.42445 41.9575 5.41969 41.9622 5.41969 41.9717V48.1797C5.41969 48.3985 5.33882 48.5888 5.17708 48.7506C5.01534 48.9123 4.82506 48.9932 4.60623 48.9932H4.34935ZM16.2928 48.9932C16.074 48.9932 15.8837 48.9123 15.7219 48.7506C15.5697 48.5888 15.4936 48.3985 15.4936 48.1797V39.3886C15.4936 39.1698 15.5697 38.9795 15.7219 38.8178C15.8837 38.656 16.074 38.5752 16.2928 38.5752H16.6781C16.8969 38.5752 17.0872 38.656 17.249 38.8178C17.4107 38.9795 17.4916 39.1698 17.4916 39.3886V43.0849C17.4916 43.0944 17.4963 43.0992 17.5058 43.0992L17.5201 43.0849L20.3886 39.2317C20.7026 38.794 21.1307 38.5752 21.673 38.5752H22.3866C22.5483 38.5752 22.6673 38.6513 22.7434 38.8035C22.8195 38.9557 22.8052 39.0937 22.7006 39.2174L19.4182 43.4702C19.3706 43.5368 19.3706 43.6034 19.4182 43.67L22.8576 48.3367C22.9622 48.4699 22.9765 48.6126 22.9004 48.7648C22.8243 48.9171 22.7006 48.9932 22.5293 48.9932H21.8158C21.2735 48.9932 20.8501 48.7743 20.5456 48.3367L17.5201 44.0553C17.5201 44.0458 17.5154 44.0411 17.5058 44.0411C17.4963 44.0411 17.4916 44.0458 17.4916 44.0553V48.1797C17.4916 48.3985 17.4107 48.5888 17.249 48.7506C17.0872 48.9123 16.8969 48.9932 16.6781 48.9932H16.2928ZM25.2963 48.9932C25.0774 48.9932 24.8872 48.9123 24.7254 48.7506C24.5637 48.5888 24.4828 48.3985 24.4828 48.1797V39.3886C24.4828 39.1698 24.5637 38.9795 24.7254 38.8178C24.8872 38.656 25.0774 38.5752 25.2963 38.5752H25.653C25.9004 38.5752 26.1288 38.6418 26.3381 38.775C26.5474 38.9082 26.6996 39.0842 26.7947 39.303L29.2922 44.6975C29.2922 44.707 29.297 44.7118 29.3065 44.7118C29.316 44.7118 29.3207 44.707 29.3207 44.6975L31.8182 39.303C31.9134 39.0842 32.0656 38.9082 32.2749 38.775C32.4842 38.6418 32.7125 38.5752 32.9599 38.5752H33.3738C33.5926 38.5752 33.7829 38.656 33.9446 38.8178C34.1064 38.9795 34.1872 39.1698 34.1872 39.3886V48.1797C34.1872 48.3985 34.1064 48.5888 33.9446 48.7506C33.7829 48.9123 33.5926 48.9932 33.3738 48.9932H33.0598C32.841 48.9932 32.6507 48.9123 32.489 48.7506C32.3272 48.5888 32.2463 48.3985 32.2463 48.1797V41.9717C32.2463 41.9622 32.2416 41.9575 32.2321 41.9575C32.2226 41.9575 32.2178 41.9622 32.2178 41.9717L30.5053 45.6394C30.4006 45.8583 30.2389 46.039 30.02 46.1817C29.8107 46.3149 29.5871 46.3815 29.3493 46.3815H29.2637C29.0258 46.3815 28.7975 46.3149 28.5786 46.1817C28.3693 46.039 28.2123 45.8583 28.1077 45.6394L26.3951 41.9717C26.3951 41.9622 26.3904 41.9575 26.3809 41.9575C26.3714 41.9575 26.3666 41.9622 26.3666 41.9717V48.1797C26.3666 48.3985 26.2857 48.5888 26.124 48.7506C25.9623 48.9123 25.772 48.9932 25.5531 48.9932H25.2963ZM41.3003 48.8362C41.1957 48.9408 41.0672 48.9932 40.915 48.9932C40.7628 48.9932 40.6343 48.9408 40.5297 48.8362C40.425 48.722 40.3727 48.5888 40.3727 48.4366V39.1603C40.3727 38.9986 40.425 38.8606 40.5297 38.7464C40.6438 38.6323 40.7818 38.5752 40.9435 38.5752C41.3336 38.5752 41.6238 38.7464 41.8141 39.0889L44.9395 44.8402C44.9395 44.8498 44.949 44.8545 44.968 44.8545C44.9775 44.8545 44.9823 44.8498 44.9823 44.8402L48.1077 39.1032C48.2885 38.7512 48.5834 38.5752 48.9925 38.5752C49.1542 38.5752 49.2922 38.637 49.4064 38.7607C49.5301 38.8749 49.5919 39.0128 49.5919 39.1746V48.4223C49.5919 48.5745 49.5348 48.7077 49.4206 48.8219C49.316 48.9361 49.1828 48.9932 49.021 48.9932C48.8593 48.9932 48.7213 48.9361 48.6072 48.8219C48.5025 48.7077 48.4502 48.5745 48.4502 48.4223V40.5018C48.4502 40.4923 48.4454 40.4875 48.4359 40.4875C48.4264 40.4875 48.4217 40.4923 48.4217 40.5018L45.7529 45.4254C45.5817 45.7393 45.32 45.8963 44.968 45.8963C44.616 45.8963 44.3544 45.7393 44.1831 45.4254L41.5001 40.5018C41.5001 40.4923 41.4954 40.4875 41.4858 40.4875C41.4763 40.4875 41.4716 40.4923 41.4716 40.5018V48.4366C41.4716 48.5888 41.4145 48.722 41.3003 48.8362ZM52.8373 48.9932C52.6184 48.9932 52.4281 48.9123 52.2664 48.7506C52.1047 48.5888 52.0238 48.3985 52.0238 48.1797V39.3886C52.0238 39.1698 52.1047 38.9795 52.2664 38.8178C52.4281 38.656 52.6184 38.5752 52.8373 38.5752H57.6324C57.7656 38.5752 57.8798 38.6227 57.9749 38.7179C58.07 38.813 58.1176 38.9224 58.1176 39.0461C58.1176 39.1698 58.07 39.284 57.9749 39.3886C57.8798 39.4838 57.7656 39.5313 57.6324 39.5313H53.2939C53.2083 39.5313 53.1655 39.5694 53.1655 39.6455V42.8137C53.1655 42.8898 53.2083 42.9279 53.2939 42.9279H57.3755C57.5087 42.9279 57.6181 42.9755 57.7037 43.0706C57.7894 43.1562 57.8322 43.2609 57.8322 43.3846C57.8322 43.5083 57.7894 43.6177 57.7037 43.7128C57.6181 43.7984 57.5087 43.8413 57.3755 43.8413H53.2939C53.2083 43.8413 53.1655 43.8841 53.1655 43.9697V47.9228C53.1655 47.9989 53.2083 48.037 53.2939 48.037H57.6324C57.7656 48.037 57.8798 48.0893 57.9749 48.194C58.07 48.2891 58.1176 48.3985 58.1176 48.5222C58.1176 48.6459 58.07 48.7553 57.9749 48.8505C57.8798 48.9456 57.7656 48.9932 57.6324 48.9932H52.8373ZM62.0124 47.9371C61.9934 47.9561 61.9886 47.9799 61.9982 48.0084C62.0172 48.0275 62.041 48.037 62.0695 48.037H66.6078C66.6839 48.037 66.7219 47.9989 66.7219 47.9228V39.6455C66.7219 39.5694 66.6839 39.5313 66.6078 39.5313H63.1398C63.0542 39.5313 63.0114 39.5694 63.0114 39.6455C63.0114 41.8909 62.9924 43.4417 62.9543 44.2979C62.9163 45.1542 62.8354 45.8297 62.7117 46.3244C62.588 46.8192 62.3549 47.3567 62.0124 47.9371ZM60.7137 51.1196C60.6091 51.2242 60.4854 51.2766 60.3427 51.2766C60.2 51.2766 60.0763 51.2242 59.9716 51.1196C59.8765 51.0149 59.8289 50.8912 59.8289 50.7485V48.7506C59.8289 48.5603 59.8955 48.3938 60.0287 48.2511C60.1714 48.1083 60.3379 48.037 60.5282 48.037C60.6043 48.037 60.6567 48.0132 60.6852 47.9656C61.0943 47.3758 61.3702 46.843 61.5129 46.3673C61.6652 45.8916 61.7651 45.2018 61.8126 44.2979C61.8697 43.3846 61.8983 41.7957 61.8983 39.5313V39.3886C61.8983 39.1698 61.9744 38.9795 62.1266 38.8178C62.2883 38.656 62.4786 38.5752 62.6974 38.5752H67.0502C67.269 38.5752 67.4593 38.656 67.621 38.8178C67.7828 38.9795 67.8636 39.1698 67.8636 39.3886V47.9228C67.8636 47.9989 67.9064 48.037 67.9921 48.037H68.2489C68.4678 48.037 68.6533 48.1179 68.8055 48.2796C68.9673 48.4413 69.0481 48.6316 69.0481 48.8505V50.7485C69.0481 50.8912 68.9958 51.0149 68.8911 51.1196C68.796 51.2242 68.6771 51.2766 68.5344 51.2766C68.3917 51.2766 68.268 51.2242 68.1633 51.1196C68.0587 51.0149 68.0063 50.8912 68.0063 50.7485V49.1073C68.0063 49.0312 67.9683 48.9932 67.8922 48.9932H60.9992C60.9135 48.9932 60.8707 49.0312 60.8707 49.1073V50.7485C60.8707 50.8912 60.8184 51.0149 60.7137 51.1196ZM71.4932 48.9932C71.3315 48.9932 71.1935 48.9361 71.0793 48.8219C70.9652 48.7077 70.9081 48.5698 70.9081 48.408V39.1318C70.9081 38.97 70.9604 38.8368 71.0651 38.7322C71.1792 38.6275 71.3124 38.5752 71.4647 38.5752C71.6169 38.5752 71.7453 38.6275 71.85 38.7322C71.9641 38.8368 72.0212 38.97 72.0212 39.1318V47.1236C72.0212 47.1331 72.026 47.1379 72.0355 47.1379C72.0545 47.1379 72.064 47.1331 72.064 47.1236L76.8021 39.0889C77.0019 38.7464 77.2968 38.5752 77.6869 38.5752C77.8486 38.5752 77.9866 38.6323 78.1008 38.7464C78.2149 38.8606 78.272 38.9986 78.272 39.1603V48.4366C78.272 48.5983 78.2149 48.7315 78.1008 48.8362C77.9961 48.9408 77.8677 48.9932 77.7154 48.9932C77.5632 48.9932 77.43 48.9408 77.3159 48.8362C77.2112 48.7315 77.1589 48.5983 77.1589 48.4366V40.4447C77.1589 40.4352 77.1541 40.4304 77.1446 40.4304C77.1256 40.4304 77.1161 40.4352 77.1161 40.4447L72.378 48.4794C72.1782 48.8219 71.8833 48.9932 71.4932 48.9932ZM81.5051 48.9932C81.2863 48.9932 81.096 48.9123 80.9343 48.7506C80.7725 48.5888 80.6917 48.3985 80.6917 48.1797V39.146C80.6917 38.9938 80.744 38.8606 80.8486 38.7464C80.9628 38.6323 81.1008 38.5752 81.2625 38.5752C81.4242 38.5752 81.5574 38.6323 81.6621 38.7464C81.7763 38.8606 81.8334 38.9938 81.8334 39.146V47.9228C81.8334 47.9989 81.8762 48.037 81.9618 48.037H86.657C86.7427 48.037 86.7855 47.9989 86.7855 47.9228V39.146C86.7855 38.9938 86.8426 38.8606 86.9567 38.7464C87.0709 38.6323 87.2041 38.5752 87.3563 38.5752C87.5085 38.5752 87.6417 38.6323 87.7559 38.7464C87.8701 38.8606 87.9272 38.9938 87.9272 39.146V47.9228C87.9272 47.9989 87.97 48.037 88.0556 48.037H88.4552C88.674 48.037 88.8596 48.1179 89.0118 48.2796C89.1735 48.4413 89.2544 48.6316 89.2544 48.8505V50.7485C89.2544 50.8912 89.2021 51.0149 89.0974 51.1196C89.0023 51.2242 88.8833 51.2766 88.7406 51.2766C88.5979 51.2766 88.4742 51.2242 88.3696 51.1196C88.2649 51.0149 88.2126 50.8912 88.2126 50.7485V49.1073C88.2126 49.0312 88.1698 48.9932 88.0842 48.9932H81.5051ZM91.7015 48.9932C91.5397 48.9932 91.4018 48.9361 91.2876 48.8219C91.1734 48.7077 91.1163 48.5698 91.1163 48.408V39.1318C91.1163 38.97 91.1687 38.8368 91.2733 38.7322C91.3875 38.6275 91.5207 38.5752 91.6729 38.5752C91.8251 38.5752 91.9536 38.6275 92.0582 38.7322C92.1724 38.8368 92.2295 38.97 92.2295 39.1318V47.1236C92.2295 47.1331 92.2343 47.1379 92.2438 47.1379C92.2628 47.1379 92.2723 47.1331 92.2723 47.1236L97.0104 39.0889C97.2102 38.7464 97.5051 38.5752 97.8952 38.5752C98.0569 38.5752 98.1949 38.6323 98.309 38.7464C98.4232 38.8606 98.4803 38.9986 98.4803 39.1603V48.4366C98.4803 48.5983 98.4232 48.7315 98.309 48.8362C98.2044 48.9408 98.0759 48.9932 97.9237 48.9932C97.7715 48.9932 97.6383 48.9408 97.5241 48.8362C97.4195 48.7315 97.3671 48.5983 97.3671 48.4366V40.4447C97.3671 40.4352 97.3624 40.4304 97.3529 40.4304C97.3338 40.4304 97.3243 40.4352 97.3243 40.4447L92.5863 48.4794C92.3865 48.8219 92.0915 48.9932 91.7015 48.9932ZM101.87 48.8219C101.766 48.9361 101.633 48.9932 101.471 48.9932C101.309 48.9932 101.171 48.9361 101.057 48.8219C100.952 48.7077 100.9 48.5745 100.9 48.4223V39.146C100.9 38.9938 100.952 38.8606 101.057 38.7464C101.171 38.6323 101.309 38.5752 101.471 38.5752C101.633 38.5752 101.766 38.6323 101.87 38.7464C101.985 38.8606 102.042 38.9938 102.042 39.146V42.8137C102.042 42.8898 102.08 42.9279 102.156 42.9279H106.865C106.941 42.9279 106.979 42.8898 106.979 42.8137V39.146C106.979 38.9938 107.032 38.8606 107.136 38.7464C107.251 38.6323 107.389 38.5752 107.55 38.5752C107.712 38.5752 107.845 38.6323 107.95 38.7464C108.064 38.8606 108.121 38.9938 108.121 39.146V48.4223C108.121 48.5745 108.064 48.7077 107.95 48.8219C107.845 48.9361 107.712 48.9932 107.55 48.9932C107.389 48.9932 107.251 48.9361 107.136 48.8219C107.032 48.7077 106.979 48.5745 106.979 48.4223V43.9697C106.979 43.8841 106.941 43.8413 106.865 43.8413H102.156C102.08 43.8413 102.042 43.8841 102.042 43.9697V48.4223C102.042 48.5745 101.985 48.7077 101.87 48.8219ZM112.171 44.9259C112.162 44.9544 112.166 44.983 112.185 45.0115C112.204 45.0305 112.228 45.04 112.257 45.04H115.61C115.639 45.04 115.658 45.0305 115.668 45.0115C115.687 44.983 115.696 44.9544 115.696 44.9259L113.955 39.617C113.955 39.6075 113.95 39.6027 113.941 39.6027C113.922 39.6027 113.912 39.6075 113.912 39.617L112.171 44.9259ZM110.244 48.9932C110.102 48.9932 109.988 48.9361 109.902 48.8219C109.816 48.6982 109.797 48.5698 109.845 48.4366L113.099 39.1746C113.165 38.9938 113.275 38.8511 113.427 38.7464C113.589 38.6323 113.765 38.5752 113.955 38.5752C114.145 38.5752 114.317 38.6323 114.469 38.7464C114.63 38.8511 114.745 38.9938 114.811 39.1746L118.051 48.4223C118.098 48.565 118.079 48.6982 117.994 48.8219C117.908 48.9361 117.794 48.9932 117.651 48.9932C117.461 48.9932 117.29 48.9408 117.137 48.8362C116.995 48.722 116.895 48.5793 116.838 48.408L116.081 46.0676C116.053 45.9915 115.996 45.9534 115.91 45.9534H111.957C111.881 45.9534 111.829 45.9915 111.8 46.0676L111.015 48.4366C110.958 48.6078 110.858 48.7458 110.715 48.8505C110.582 48.9456 110.425 48.9932 110.244 48.9932Z" fill="white"/>
<path d="M39.2961 12.3789C39.0743 12.2815 38.8202 12.2477 38.5339 12.2776C37.3518 12.4048 35.9503 12.6334 34.7328 13.074C30.8475 14.4848 27.8713 16.974 25.8044 20.5417C23.8248 23.9586 23.5794 28.0894 24.4524 31.9022C24.4965 32.0939 24.4186 32.2997 24.2188 32.5196C24.1024 32.6469 23.9184 32.7215 23.6667 32.7435C22.9337 32.8063 22.284 32.8102 21.7177 32.7553C21.6201 32.7457 21.5284 32.7043 21.4567 32.6374C21.3851 32.5705 21.3375 32.4819 21.3213 32.3853C21.0453 30.7334 20.7126 28.8859 20.8353 27.1869C20.947 25.6426 21.1263 24.3112 21.3733 23.1927C21.7523 21.4662 22.4571 19.775 23.4874 18.1192C23.717 17.7501 24.0183 17.3353 24.3911 16.875C24.896 16.2529 25.2169 15.8531 25.3537 15.6756C26.6436 14.0213 28.2976 12.6098 30.3158 11.441C32.2852 10.3005 34.6612 9.5362 37.4439 9.14816C38.2052 9.04291 39.3967 8.93687 41.0185 8.83004C41.2403 8.8159 41.5093 8.69494 41.8255 8.46714C41.9843 8.35246 42.1959 8.15295 42.4602 7.8686C44.3745 5.82319 46.502 4.28677 48.8426 3.25935C53.0488 1.41188 57.4949 1.13775 62.1809 2.43695C63.0005 2.66474 63.9749 3.06377 65.1044 3.63403C65.7493 3.95922 66.6042 4.47843 67.6691 5.19165C68.5264 5.76506 69.2854 6.3746 69.9461 7.02027C73.0166 10.0224 74.8892 13.726 75.564 18.131C75.6427 18.6463 75.6978 19.4679 75.7292 20.5959C75.7449 21.1583 75.7308 21.9823 75.6867 23.0678C75.5578 26.2742 75.7803 29.4593 76.3545 32.6233C76.3586 32.6461 76.3577 32.6695 76.3518 32.6918C76.3459 32.7142 76.3351 32.735 76.3203 32.7528C76.3054 32.7706 76.2868 32.7848 76.2658 32.7946C76.2448 32.8044 76.2219 32.8095 76.1988 32.8094H73.2871C73.2364 32.8094 73.1878 32.7891 73.152 32.7529C73.1161 32.7166 73.096 32.6675 73.096 32.6162C73.0944 31.9548 73.0929 31.555 73.0913 31.4168C73.0866 31.035 73.0268 30.6478 72.912 30.255C72.6147 29.248 72.4597 28.2662 72.4471 27.3095C72.4393 26.7125 72.4346 24.9247 72.433 21.9461C72.4314 19.841 72.3292 18.3148 72.1262 17.3675C71.8038 15.8531 71.2579 14.4164 70.4888 13.0575C69.5969 11.4834 68.4895 10.0947 67.1666 8.89131C64.9329 6.86003 62.3453 5.59854 59.4038 5.10682C55.7607 4.49885 52.3473 5.0322 49.1635 6.70686C47.8312 7.40752 46.5767 8.34225 45.4001 9.51106C43.0123 11.8817 41.4825 14.7825 40.8109 18.2135C40.5938 19.3281 40.3885 20.0845 39.1285 20.0185C38.3279 19.9761 37.834 19.5975 37.6468 18.8827C37.4792 18.2394 37.6916 17.5749 37.8025 16.9669C38.0856 15.4211 38.6071 13.9624 39.3669 12.591C39.3771 12.5728 39.3834 12.5527 39.3854 12.5319C39.3873 12.5111 39.3849 12.4901 39.3783 12.4701C39.3716 12.4502 39.3609 12.4318 39.3467 12.4161C39.3326 12.4004 39.3153 12.3877 39.2961 12.3789Z" fill="white"/>
<path d="M55.0281 10.6413C56.2206 10.3283 56.9977 9.35131 56.7638 8.4592C56.5299 7.5671 55.3736 7.09768 54.181 7.41072C52.9885 7.72377 52.2113 8.70073 52.4452 9.59284C52.6791 10.4849 53.8355 10.9544 55.0281 10.6413Z" fill="white"/>
<path d="M65.9375 16.5112C65.2431 14.7953 63.7929 13.3434 62.3474 12.1884C61.8451 11.7861 61.6129 11.3084 61.6507 10.7553C61.7168 9.80072 62.3474 9.38117 63.2686 9.43067C63.8102 9.45895 64.359 9.69544 64.9148 10.1401C67.346 12.0855 68.9513 14.4692 69.7308 17.2914C69.7859 17.4863 69.8859 18.2185 70.0307 19.4882C70.1016 20.1151 70.1331 20.8521 70.1252 21.6991C70.1252 21.7368 70.1236 22.7998 70.1205 24.8882C70.1189 27.484 70.2567 29.8819 70.5338 32.0818C70.5443 32.1644 70.538 32.2483 70.5154 32.3284C70.4927 32.4085 70.4541 32.4832 70.4018 32.5481C70.3496 32.613 70.2848 32.6667 70.2113 32.7061C70.1378 32.7454 70.0571 32.7696 69.9741 32.7772C69.4922 32.8212 68.9112 32.8204 68.231 32.7748C68.0436 32.7607 67.883 32.6947 67.7491 32.5768C67.535 32.3867 67.4193 32.2492 67.4019 32.1643C67.2508 31.4431 67.1587 30.9261 67.1256 30.6134C66.817 27.6985 66.717 24.8827 66.8256 22.1658C66.8792 20.8647 66.8492 19.9038 66.7359 19.2831C66.5627 18.3199 66.2966 17.3959 65.9375 16.5112Z" fill="white"/>
<path d="M61.0341 74.4576C61.0891 73.9551 61.0169 73.4848 60.8174 73.0467C59.8748 70.9771 59.3116 69.7366 59.1278 69.3252C58.2088 67.265 57.4296 65.058 56.7903 62.7042C56.0849 60.1069 55.7841 57.472 55.8878 54.7994C55.8909 54.7052 55.9396 54.6581 56.0339 54.6581H58.9299C58.9548 54.658 58.9796 54.6631 59.0024 54.6731C59.0253 54.6831 59.0459 54.6978 59.0627 54.7162C59.0796 54.7347 59.0924 54.7564 59.1004 54.78C59.1083 54.8037 59.1113 54.8288 59.109 54.8536C59.0304 55.689 59.0351 56.522 59.1231 57.3527C59.299 59.0156 59.6109 60.6369 60.0586 62.2166C60.2314 62.8306 60.5346 63.7986 60.9682 65.1208C61.2541 65.9907 61.6311 66.9305 62.0992 67.9402C63.0874 70.0663 63.7094 71.4442 63.9655 72.0739C64.7258 73.9457 64.4674 75.6109 63.1903 77.0697C62.0309 78.3919 60.5063 78.7829 58.6165 78.2427C58.0588 78.0841 57.2608 77.7206 56.2224 77.1522C55.7181 76.8774 54.8808 76.3442 53.7104 75.5528C52.8119 74.9451 52.0547 74.3555 51.4389 73.7839C49.8019 72.2655 48.4941 70.9111 47.5154 69.7209C47.008 69.1053 46.6224 68.5173 46.3585 67.9567C46.2595 67.7478 46.1377 67.572 45.9932 67.4291C45.7591 67.1967 45.6068 67.0287 45.5361 66.925C44.7302 65.7426 44.1458 64.7832 43.7829 64.0467C42.0659 60.5686 40.718 57.7327 39.7393 55.539C39.6246 55.2815 39.5374 55.0554 39.4778 54.8607C39.4708 54.8369 39.4695 54.8118 39.4739 54.7874C39.4784 54.763 39.4884 54.7399 39.5032 54.7201C39.5181 54.7002 39.5374 54.684 39.5595 54.6729C39.5817 54.6617 39.6061 54.6559 39.6309 54.6558H42.5764C42.6877 54.6559 42.7968 54.6867 42.8916 54.7449C42.9864 54.8031 43.0633 54.8864 43.1137 54.9855C43.4342 55.6105 43.7609 56.3438 44.0939 57.1855C44.0987 57.198 44.6831 58.426 45.8471 60.8693C46.4771 62.1915 47.0567 63.2891 47.5861 64.1621C48.3308 65.3901 49.0228 66.4163 49.6621 67.2406C50.3738 68.1577 51.3784 69.2474 52.676 70.5099C54.1134 71.909 55.6231 73.0483 57.205 73.9276C57.8035 74.2605 58.2654 74.5212 58.5905 74.7096C59.0595 74.9828 59.6651 75.2302 60.0939 75.2867C60.5629 75.3479 60.9799 74.9404 61.0341 74.4576Z" fill="white"/>
<path d="M78.4076 55.1395C78.3466 55.105 78.3067 55.0713 78.2879 55.0383C78.2683 55.0046 78.2587 54.9664 78.2601 54.9274C78.2616 54.8884 78.274 54.8501 78.2961 54.8162C78.3182 54.7824 78.3493 54.7542 78.3861 54.7346C78.423 54.7149 78.4644 54.7044 78.5062 54.7042L81.5624 54.6948C81.5934 54.6946 81.6241 54.7105 81.6487 54.7395C81.6733 54.7685 81.6902 54.8087 81.6962 54.8524C82.2564 59.3085 81.9098 63.6894 80.6563 67.9949C80.3324 69.1069 79.7683 69.9296 78.9639 70.4629C77.3521 71.531 75.7012 71.6259 74.0111 70.7476C73.5323 70.4966 73.0644 69.9978 72.6074 69.2512C71.9854 68.2325 71.469 66.6867 71.0535 65.7668C69.9409 63.3059 69.2312 61.7805 68.9245 61.1907C68.8103 60.9727 68.2845 60.0881 67.3471 58.5368C67.0248 58.002 66.614 57.4122 66.1148 56.7676C65.8409 56.4131 65.4231 55.8186 64.8613 54.9842C64.8435 54.9577 64.8329 54.927 64.8307 54.8952C64.8285 54.8633 64.8348 54.8314 64.8488 54.8028C64.8629 54.7741 64.8843 54.7497 64.9108 54.7319C64.9373 54.7142 64.968 54.7039 64.9998 54.7019C66.0608 54.636 67.0983 54.6407 68.1123 54.716C68.9128 54.7748 69.0489 55.123 69.5019 55.8265C70.5754 57.4907 71.5637 59.2035 72.4666 60.9649C72.9001 61.8103 73.3625 62.8306 73.8538 64.0258C74.6801 66.0382 75.105 67.071 75.1284 67.1243C75.5024 67.987 76.1135 68.2537 76.9617 67.9243C77.0275 67.8998 77.0847 67.8555 77.126 67.7972C78.4733 65.8892 78.7527 63.4847 78.7456 61.0755C78.7441 60.6175 78.6901 58.7353 78.5837 55.4289C78.5816 55.3694 78.5643 55.3114 78.5334 55.2607C78.5026 55.21 78.4592 55.1683 78.4076 55.1395Z" fill="white"/>
<path d="M9.72135 32.8097L50.3394 33.0842L90.9575 32.8098L90.9437 32.8097L50.3394 32.3706L9.72135 32.8097Z" fill="white"/>
<path d="M23.8829 54.7653L64.5009 55.0397L105.119 54.7653L105.105 54.7653L64.5009 54.3262L23.8829 54.7653Z" fill="white"/>
</svg>
