<svg width="283" height="56" viewBox="0 0 283 56" fill="none" xmlns="http://www.w3.org/2000/svg">
<g clip-path="url(#clip0_287_2405)">
<path fill-rule="evenodd" clip-rule="evenodd" d="M282.011 33.1477L282.954 38.9862C281.281 39.7885 278.907 40.1896 275.831 40.1896C271.675 40.1896 268.378 39.0147 265.942 36.6648C263.505 34.3149 262.282 31.1446 262.271 27.1539C262.223 25.3571 262.544 23.5696 263.214 21.9007C263.884 20.2319 264.889 18.717 266.168 17.4489C268.765 14.8609 272.361 13.5669 276.953 13.5669C279.02 13.5344 281.076 13.8709 283.024 14.5607L281.769 20.4536C280.356 19.892 278.841 19.6277 277.319 19.6772C276.386 19.6366 275.455 19.795 274.588 20.1418C273.721 20.4886 272.939 21.0157 272.293 21.688C271.651 22.3778 271.154 23.1886 270.832 24.0727C270.509 24.9567 270.367 25.8961 270.415 26.8356C270.349 27.7772 270.484 28.7222 270.811 29.6082C271.138 30.4942 271.649 31.3011 272.312 31.9759C272.975 32.6507 273.773 33.178 274.655 33.5232C275.537 33.8683 276.482 34.0235 277.429 33.9784C278.989 34.0156 280.541 33.7328 281.987 33.1477M260.214 39.6694H252.281V14.1648H260.237L260.214 39.6694ZM224.468 39.6694V22.3014C224.468 19.936 224.398 17.2238 224.257 14.1648H231.17L231.536 17.7129H231.692C232.542 16.4068 233.716 15.3412 235.1 14.6191C236.484 13.8969 238.032 13.5425 239.594 13.5902C240.842 13.5392 242.086 13.7625 243.237 14.2442C244.389 14.7259 245.42 15.4543 246.257 16.3775C247.935 18.2408 248.774 20.9789 248.774 24.5918V39.6694H240.802V25.5312C240.802 21.8511 239.456 20.0084 236.765 20.0033C234.817 20.0033 233.456 20.9945 232.682 22.9769C232.478 23.6162 232.391 24.2867 232.424 24.9567V39.7082L224.468 39.6694ZM220.961 39.6694H213.028V14.1648H220.984L220.961 39.6694ZM201.479 39.6694V2.63525H209.474V39.6694H201.479ZM198.362 32.4722L199.499 38.73C197.421 39.7393 194.421 40.2414 190.498 40.2362C184.597 40.2362 180.043 38.6032 176.838 35.3371C173.632 32.0711 172.027 27.8294 172.021 22.612C172.021 16.8045 173.84 12.2496 177.477 8.94737C181.113 5.64509 185.727 3.99395 191.317 3.99395C195.218 3.99395 198.115 4.51155 200.006 5.54674L198.33 11.8045C196.21 10.9158 193.929 10.4718 191.628 10.5002C190.148 10.4392 188.67 10.6728 187.281 11.1874C185.892 11.702 184.62 12.4871 183.539 13.4971C181.461 15.4898 180.422 18.3677 180.422 22.1306C180.422 25.671 181.417 28.4686 183.407 30.5235C185.397 32.5783 188.153 33.6135 191.675 33.629C193.967 33.6897 196.247 33.2965 198.385 32.4722H198.362Z" fill="#EE7203"/>
<path fill-rule="evenodd" clip-rule="evenodd" d="M256.239 11.1054C257.086 11.1069 257.914 10.8583 258.618 10.3908C259.323 9.92341 259.873 9.25825 260.198 8.47953C260.523 7.70081 260.608 6.84354 260.444 6.0162C260.28 5.18886 259.873 4.42864 259.275 3.83175C258.677 3.23486 257.915 2.82814 257.085 2.66304C256.255 2.49794 255.394 2.5819 254.612 2.90428C253.83 3.22666 253.161 3.77298 252.69 4.4741C252.22 5.17522 251.969 5.99963 251.969 6.84298C251.969 7.9721 252.419 9.05509 253.219 9.85423C254.02 10.6534 255.106 11.1033 256.239 11.1054ZM217.002 11.1054C217.849 11.11 218.679 10.864 219.385 10.3984C220.092 9.93286 220.644 9.26878 220.971 8.49035C221.299 7.71191 221.387 6.85415 221.224 6.0258C221.062 5.19744 220.656 4.43577 220.059 3.83733C219.461 3.23889 218.699 2.83061 217.869 2.66425C217.038 2.49788 216.177 2.58092 215.394 2.90284C214.61 3.22476 213.941 3.77106 213.47 4.47251C212.999 5.17395 212.747 5.99897 212.747 6.84298C212.747 7.96942 213.195 9.05007 213.992 9.84877C214.789 10.6475 215.871 11.0992 217.002 11.1054Z" fill="#F28E0A"/>
<path d="M87.7641 24.7005H95.557L93.3594 17.2393C93.0425 16.2041 92.4476 13.9448 91.5748 10.4614H91.4735C91.3644 10.9117 91.1228 11.9676 90.741 13.6135C90.3591 15.2595 90.0552 16.4784 89.8526 17.2393L87.7641 24.7005ZM96.7104 30.6477H86.5796L84.0702 39.6694H75.8799L86.6107 4.51416H97.0766L108.072 39.6694H99.4379L96.7104 30.6477Z" fill="#EE7203"/>
<path d="M133.453 32.4719L134.607 38.7297C132.529 39.739 129.526 40.2411 125.598 40.2359C119.707 40.2359 115.153 38.6029 111.937 35.3368C108.721 32.0708 107.116 27.8291 107.121 22.6117C107.121 16.8042 108.939 12.2493 112.576 8.94707C116.213 5.64479 120.811 3.99365 126.37 3.99365C130.282 3.99365 133.178 4.51125 135.059 5.54645L133.383 11.8042C131.263 10.9155 128.982 10.4715 126.681 10.4999C125.202 10.4382 123.725 10.6715 122.337 11.1862C120.95 11.7008 119.679 12.4864 118.6 13.4968C116.522 15.4895 115.483 18.3674 115.483 22.1303C115.483 25.6707 116.478 28.4683 118.468 30.5232C120.457 32.578 123.213 33.6132 126.736 33.6287C129.024 33.6933 131.301 33.3054 133.438 32.4874" fill="#EE7203"/>
<path d="M146.788 39.6694V11.1912H137.265V4.51416H164.376V11.1912H154.744V39.6694H146.788Z" fill="#EE7203"/>
<path d="M281.41 50.0033V48.171C281.206 48.1249 280.997 48.1041 280.787 48.1089C280.478 48.0942 280.172 48.1785 279.914 48.3496C279.804 48.4333 279.716 48.5431 279.659 48.6692C279.601 48.7953 279.577 48.9336 279.587 49.0716C279.578 49.2106 279.606 49.3495 279.669 49.4738C279.732 49.5981 279.827 49.7033 279.945 49.7782C280.218 49.9546 280.54 50.0414 280.865 50.0266C281.047 50.0389 281.229 50.0389 281.41 50.0266M279.26 53.8154H277.623C277.769 53.5719 277.885 53.311 277.966 53.039C278.005 52.9381 278.059 52.7518 278.153 52.48C278.247 52.2083 278.309 52.0064 278.356 51.8744C278.421 51.7146 278.496 51.559 278.582 51.4086C278.669 51.2441 278.782 51.0947 278.917 50.966C279.082 50.8157 279.275 50.6995 279.486 50.6244C279.095 50.5585 278.734 50.371 278.457 50.0887C278.318 49.9371 278.211 49.7595 278.141 49.5663C278.072 49.373 278.041 49.168 278.052 48.9629C278.044 48.6849 278.103 48.4091 278.225 48.1589C278.347 47.9088 278.529 47.6919 278.753 47.5266C279.424 47.1189 280.206 46.9315 280.99 46.9909C281.639 46.9843 282.289 47.0337 282.93 47.1384V53.8232H281.41V51.1368H281.036C280.771 51.1257 280.511 51.2175 280.312 51.3931C280.171 51.5286 280.057 51.6892 279.977 51.8667C279.857 52.1171 279.758 52.3768 279.68 52.6431C279.571 52.9692 279.517 53.1632 279.501 53.2098C279.437 53.4103 279.356 53.6051 279.26 53.7921V53.8154ZM271.248 47.0375H272.659V49.025C272.659 50.1042 272.659 51.1291 272.581 52.1306C272.955 51.2999 273.36 50.4924 273.797 49.716L275.262 47.053H276.82V53.831H275.41V51.789C275.41 50.6089 275.41 49.6539 275.519 48.9319C275.19 49.7632 274.802 50.5702 274.358 51.3465L272.979 53.7921H271.233L271.248 47.0375ZM264.305 47.0375H265.864V49.6384H268.396V47.0142H269.955V53.7921H268.396V50.966H265.864V53.7999H264.305V47.0375ZM259.481 50.9195H260.985L260.564 49.4831C260.502 49.2813 260.385 48.8465 260.221 48.1788C260.221 48.2616 260.175 48.4635 260.081 48.7844C260.003 49.1027 259.949 49.3356 259.91 49.4831L259.481 50.9195ZM261.203 52.0685H259.263L258.772 53.8077H257.213L259.286 47.0297H261.305L263.401 53.7921H261.741L261.203 52.0685ZM253.107 50.8108V52.7207C253.304 52.7317 253.502 52.7317 253.699 52.7207C254.03 52.7362 254.359 52.6523 254.642 52.48C254.773 52.4008 254.877 52.2849 254.942 52.1468C255.007 52.0087 255.03 51.8546 255.008 51.7036C255.016 51.5611 254.985 51.419 254.918 51.293C254.851 51.167 254.75 51.0619 254.626 50.9893C254.321 50.8219 253.976 50.7413 253.629 50.7564L253.107 50.8108ZM253.107 48.1322V49.685H253.605C253.93 49.7049 254.253 49.6264 254.533 49.4598C254.633 49.3919 254.714 49.3003 254.77 49.1932C254.826 49.0862 254.854 48.9671 254.852 48.8465C254.852 48.3263 254.486 48.0701 253.761 48.0701C253.542 48.07 253.323 48.0855 253.107 48.1167V48.1322ZM251.548 53.7766V47.0841C252.205 46.9751 252.87 46.9257 253.535 46.9365C254.23 46.8941 254.924 47.0276 255.554 47.3247C255.799 47.4487 256.003 47.6408 256.141 47.8777C256.28 48.1147 256.346 48.3864 256.333 48.6601C256.335 48.9652 256.236 49.2624 256.052 49.5064C255.833 49.7779 255.541 49.9824 255.211 50.0965C255.592 50.1854 255.936 50.3919 256.193 50.6865C256.447 50.9819 256.58 51.3615 256.567 51.7502C256.569 52.0304 256.507 52.3074 256.384 52.5593C256.261 52.8113 256.08 53.0313 255.857 53.2021C255.054 53.6818 254.118 53.8965 253.184 53.8154C252.649 53.8317 252.113 53.8135 251.579 53.7611L251.548 53.7766ZM248.478 48.7766C248.353 48.5723 248.176 48.4044 247.965 48.2899C247.755 48.1754 247.517 48.1183 247.277 48.1244C247.038 48.12 246.801 48.1769 246.589 48.2897C246.378 48.4025 246.199 48.5675 246.07 48.7688C245.754 49.2641 245.599 49.8442 245.625 50.4303C245.598 51.0092 245.754 51.5819 246.07 52.0685C246.201 52.267 246.38 52.4289 246.592 52.5389C246.803 52.649 247.039 52.7035 247.277 52.6974C247.516 52.7036 247.753 52.6473 247.964 52.5343C248.174 52.4212 248.351 52.2553 248.478 52.053C248.786 51.5579 248.938 50.9817 248.914 50.3993C248.949 49.8248 248.808 49.2533 248.509 48.7611L248.478 48.7766ZM247.309 46.9055C247.756 46.8735 248.205 46.9428 248.622 47.1082C249.039 47.2735 249.413 47.5307 249.717 47.8605C250.282 48.5883 250.584 49.4856 250.573 50.4062C250.562 51.3268 250.238 52.2165 249.654 52.9303C249.34 53.2503 248.962 53.5007 248.545 53.6652C248.127 53.8297 247.679 53.9047 247.231 53.8853C246.793 53.9049 246.356 53.8273 245.951 53.6581C245.547 53.4889 245.185 53.2324 244.893 52.907C244.328 52.1879 244.026 51.2988 244.036 50.3859C244.046 49.4729 244.367 48.5905 244.947 47.8837C245.251 47.5568 245.622 47.2988 246.035 47.1274C246.448 46.9559 246.893 46.8749 247.34 46.89L247.309 46.9055ZM240.022 48.1788V50.1896C240.192 50.219 240.364 50.232 240.537 50.2285C240.884 50.2481 241.226 50.1435 241.503 49.9334C241.617 49.8391 241.709 49.7203 241.771 49.5859C241.833 49.4515 241.864 49.3049 241.861 49.157C241.874 49.0116 241.852 48.8653 241.796 48.7302C241.74 48.5952 241.653 48.4753 241.542 48.3806C241.281 48.1965 240.965 48.1062 240.646 48.1244C240.436 48.1193 240.227 48.1375 240.022 48.1788ZM238.464 53.7921V47.0841C239.152 46.9743 239.848 46.9249 240.544 46.9365C241.279 46.885 242.01 47.076 242.625 47.48C242.86 47.6635 243.048 47.8999 243.174 48.1698C243.3 48.4396 243.36 48.7354 243.35 49.0328C243.368 49.3307 243.321 49.629 243.214 49.9076C243.106 50.1862 242.94 50.4385 242.726 50.6477C242.105 51.1544 241.314 51.407 240.513 51.3542C240.34 51.3737 240.165 51.3737 239.991 51.3542V53.7921H238.464ZM231.505 47.0142H232.915V49.025C232.915 50.1042 232.915 51.1291 232.837 52.1306C233.211 51.2999 233.616 50.4924 234.053 49.716L235.518 47.053H237.076V53.831H235.666V51.789C235.666 50.6089 235.705 49.6539 235.775 48.9319C235.446 49.7632 235.058 50.5702 234.614 51.3465L233.235 53.7921H231.489L231.505 47.0142ZM226.127 48.567L225.769 47.4723C226.414 47.1063 227.146 46.9186 227.889 46.9288C228.504 46.8965 229.112 47.0685 229.619 47.4179C229.815 47.5625 229.974 47.7509 230.084 47.9681C230.193 48.1852 230.25 48.4249 230.25 48.6679C230.263 49.0495 230.129 49.4216 229.876 49.7083C229.61 49.9901 229.265 50.185 228.886 50.2673C229.308 50.3183 229.704 50.5002 230.016 50.7875C230.165 50.9262 230.283 51.0947 230.362 51.282C230.442 51.4694 230.48 51.6712 230.476 51.8744C230.484 52.2107 230.395 52.5422 230.219 52.8294C230.059 53.0991 229.827 53.3194 229.549 53.466C229.269 53.6184 228.97 53.7333 228.66 53.8077C228.338 53.8792 228.009 53.9156 227.678 53.9164C226.968 53.9411 226.263 53.7777 225.636 53.4428L225.964 52.2549C226.213 52.3768 226.474 52.4731 226.743 52.5421C227.035 52.6242 227.336 52.666 227.639 52.6664C227.963 52.6858 228.284 52.6044 228.559 52.4334C228.665 52.3599 228.752 52.261 228.81 52.1458C228.869 52.0305 228.898 51.9026 228.894 51.7735C228.894 51.1757 228.411 50.8806 227.46 50.8806H226.774V49.7316H227.421C227.729 49.7415 228.032 49.6605 228.294 49.4987C228.403 49.4344 228.492 49.342 228.552 49.2313C228.613 49.1206 228.642 48.9957 228.637 48.8698C228.641 48.7647 228.618 48.6602 228.571 48.5664C228.523 48.4726 228.452 48.3926 228.364 48.3341C228.136 48.1788 227.86 48.1074 227.585 48.1322C227.081 48.1561 226.588 48.2914 226.143 48.5282L226.127 48.567ZM224.67 49.716V50.966H222.169V52.5188H224.966V53.7766H220.633V47.0142H224.826V48.2719H222.169V49.6772L224.67 49.716ZM216.417 53.831V48.303H214.578V47.0142H219.807V48.303H217.968V53.7921L216.417 53.831ZM212.03 48.7999C211.903 48.5955 211.725 48.4277 211.513 48.3133C211.301 48.1989 211.063 48.1418 210.822 48.1477C210.582 48.1433 210.345 48.2002 210.134 48.313C209.922 48.4258 209.743 48.5908 209.614 48.7921C209.298 49.2874 209.143 49.8675 209.17 50.4536C209.156 51.021 209.316 51.5791 209.63 52.053C209.761 52.2515 209.941 52.4134 210.152 52.5234C210.363 52.6335 210.599 52.688 210.838 52.6819C211.077 52.688 211.313 52.6318 211.524 52.5188C211.734 52.4057 211.912 52.2398 212.038 52.0375C212.321 51.5376 212.47 50.9733 212.47 50.3993C212.47 49.8252 212.321 49.2609 212.038 48.7611L212.03 48.7999ZM210.853 46.9288C211.297 46.8963 211.742 46.9631 212.156 47.1243C212.57 47.2855 212.942 47.5371 213.246 47.8605C213.811 48.588 214.114 49.4846 214.104 50.4048C214.094 51.3251 213.772 52.215 213.191 52.9303C212.876 53.2505 212.496 53.5009 212.077 53.6654C211.659 53.83 211.21 53.9049 210.76 53.8853C210.322 53.9049 209.885 53.8273 209.48 53.6581C209.076 53.4889 208.715 53.2324 208.422 52.907C207.857 52.1879 207.555 51.2988 207.565 50.3859C207.575 49.4729 207.896 48.5905 208.476 47.8837C208.78 47.5568 209.151 47.2988 209.564 47.1274C209.977 46.9559 210.422 46.8749 210.869 46.89L210.853 46.9288ZM203.52 48.2176V50.1896C203.69 50.2186 203.862 50.2316 204.035 50.2285C204.382 50.2481 204.724 50.1435 205.001 49.9334C205.115 49.8391 205.207 49.7203 205.269 49.5859C205.331 49.4515 205.362 49.3049 205.359 49.157C205.372 49.0116 205.35 48.8653 205.294 48.7302C205.238 48.5952 205.151 48.4753 205.04 48.3806C204.779 48.1954 204.463 48.1049 204.144 48.1244C203.94 48.1205 203.736 48.1387 203.536 48.1788L203.52 48.2176ZM201.962 53.831V47.0841C202.649 46.9743 203.346 46.9249 204.042 46.9365C204.777 46.885 205.508 47.076 206.123 47.48C206.358 47.6635 206.546 47.8999 206.672 48.1698C206.798 48.4396 206.858 48.7354 206.848 49.0328C206.866 49.3307 206.819 49.629 206.712 49.9076C206.604 50.1862 206.438 50.4385 206.224 50.6477C205.603 51.1544 204.812 51.407 204.011 51.3542C203.838 51.3737 203.662 51.3737 203.489 51.3542V53.7921L201.962 53.831ZM195.143 47.053H200.598V53.831H199.039V48.2719H196.616V53.7921H195.057L195.143 47.053ZM186.134 47.053H187.545V49.025C187.545 50.1042 187.545 51.1291 187.467 52.1306C187.849 51.2999 188.246 50.4924 188.69 49.716L190.155 47.053H191.714V53.831H190.303V51.789C190.291 50.8354 190.328 49.8818 190.412 48.9319C190.084 49.7632 189.696 50.5702 189.251 51.3465L187.872 53.7921H186.126L186.134 47.053ZM177.133 47.053H178.544V49.025C178.544 50.1042 178.544 51.1291 178.466 52.1306C178.848 51.2999 179.245 50.4924 179.689 49.716L181.154 47.053H182.713V53.831H181.303V51.789C181.291 50.8354 181.327 49.8818 181.412 48.9319C181.079 49.7618 180.692 50.5685 180.25 51.3465L178.871 53.7921H177.126L177.133 47.053ZM170.166 47.053H171.577V49.025C171.577 50.1042 171.577 51.1291 171.499 52.1306C171.873 51.2999 172.278 50.4924 172.723 49.716L174.18 47.053H175.738V53.831H174.328V51.789C174.328 50.6089 174.367 49.6539 174.437 48.9319C174.111 49.7632 173.725 50.5701 173.284 51.3465L171.896 53.7921H170.151L170.166 47.053ZM163.153 47.053H164.711V52.5188H167.088V47.0142H168.647V52.5809H169.333L169.262 55.4614H168.094L168.008 53.7533H163.2L163.153 47.053ZM158.329 50.935H159.833L159.404 49.4987C159.342 49.2968 159.233 48.862 159.062 48.1943C159.062 48.2797 158.991 48.4816 158.913 48.7999C158.836 49.1182 158.789 49.3511 158.75 49.4987L158.329 50.935ZM160.051 52.0841H158.197L157.713 53.8232H156.155L158.197 47.0142H160.215L162.335 53.7921H160.667L160.051 52.0841ZM152.313 53.8232V48.303H150.474V47.0142H155.703V48.303H153.848V53.7921L152.313 53.8232ZM144.045 47.0452H145.603V49.6462H148.136V47.0142H149.694V53.7921H148.136V50.966H145.65V53.7999H144.091L144.045 47.0452ZM139.221 50.9272H140.725L140.304 49.4909C140.242 49.289 140.125 48.8542 139.961 48.1865C139.961 48.2694 139.914 48.4712 139.821 48.7921C139.751 49.1105 139.688 49.3434 139.649 49.4909L139.221 50.9272ZM141.052 52.053H139.104L138.621 53.7921H137.062L139.135 47.0142H141.153L143.273 53.7921H141.605L141.052 52.053ZM131.591 47.0142H136.174V53.7921H134.615V48.2719H133.057V49.8791C133.075 50.6639 132.986 51.4476 132.792 52.2083C132.651 52.7618 132.299 53.2384 131.81 53.5359C131.395 53.7643 130.927 53.8794 130.454 53.8698L130.267 52.6353C130.562 52.6097 130.838 52.4804 131.046 52.2704C131.389 51.921 131.56 51.1446 131.56 49.9412L131.591 47.0142ZM124.188 47.0142H129.643V53.7921H128.085V48.2719H125.661V53.7921H124.102L124.188 47.0142ZM121.507 53.7921L121.391 51.199C121.391 50.112 121.336 49.1803 121.336 48.4117C121.102 49.3123 120.845 50.1896 120.557 51.0359L119.731 53.6757H118.453L117.728 51.067C117.502 50.244 117.291 49.3667 117.112 48.4117C117.112 49.4598 117.042 50.3915 117.003 51.2145L116.894 53.7921H115.476L115.904 47.0142H117.954L118.624 49.2735C118.85 50.0965 119.045 50.9039 119.201 51.6959H119.232C119.442 50.7952 119.653 49.98 119.879 49.2657L120.596 47.0142H122.614L122.973 53.7921H121.507ZM108.68 47.0142H110.091V49.025C110.091 50.1042 110.091 51.1291 110.013 52.1306C110.387 51.2999 110.792 50.4924 111.229 49.716L112.694 47.053H114.252V53.831H112.842V51.789C112.83 50.8354 112.866 49.8818 112.951 48.9319C112.622 49.7632 112.234 50.5702 111.79 51.3465L110.41 53.7921H108.665L108.68 47.0142ZM102.298 48.1788V50.1896C102.468 50.2186 102.64 50.2316 102.812 50.2285C103.162 50.2466 103.506 50.1422 103.786 49.9334C103.9 49.8387 103.99 49.7197 104.051 49.5852C104.112 49.4508 104.141 49.3044 104.137 49.157C104.15 49.0116 104.127 48.8653 104.072 48.7302C104.016 48.5952 103.929 48.4753 103.818 48.3806C103.56 48.1953 103.246 48.1048 102.929 48.1244C102.707 48.1175 102.485 48.1358 102.267 48.1788H102.298ZM100.778 53.7921V47.0841C101.466 46.974 102.162 46.9246 102.859 46.9365C103.591 46.8838 104.32 47.0749 104.932 47.48C105.168 47.6632 105.357 47.8992 105.485 48.1691C105.612 48.4389 105.674 48.7348 105.664 49.0328C105.683 49.3315 105.636 49.6306 105.527 49.9094C105.418 50.1883 105.25 50.4402 105.033 50.6477C104.416 51.1567 103.627 51.4097 102.828 51.3542C102.652 51.3734 102.474 51.3734 102.298 51.3542V53.7921H100.778ZM96.5701 53.7921V48.303H94.731V47.0142H99.96V48.303H98.1053V53.7921H96.5701ZM88.3018 47.0142H89.8604V49.6151H92.3931V47.0142H93.9517V53.7921H92.3931V50.966H89.8604V53.7999H88.3018V47.0142ZM86.9536 49.6772V50.966H84.4521V52.5188H87.242V53.7766H82.9169V47.0142H87.1017V48.2719H84.4521V49.6772H86.9536ZM75.8799 47.0142H77.4385V52.5188H79.7763V47.0142H81.3349V52.5809H82.0207L81.9506 55.4614H80.7816L80.7037 53.7533H75.8799V47.0142Z" fill="#EE7203"/>
<path fill-rule="evenodd" clip-rule="evenodd" d="M57.7374 9.54522C58.4911 9.73372 59.1984 10.0733 59.8161 10.5431C60.4338 11.013 60.9488 11.6034 61.3299 12.2781C64.3146 17.4179 57.527 26.7191 44.6141 17.1617C44.5843 17.1313 44.5629 17.0939 44.5517 17.053C42.7438 1.52504 54.0669 -0.276207 57.1607 5.07317C57.5556 5.73947 57.8104 6.47882 57.9095 7.24627C58.0086 8.01373 57.9501 8.79326 57.7374 9.53746" fill="#F28E0A"/>
<path fill-rule="evenodd" clip-rule="evenodd" d="M47.1628 18.9003C53.327 20.5153 59.3353 25.0494 59.3587 30.6783C59.3587 35.3367 55.9766 40.655 47.6693 44.141C43.204 46.0199 37.0008 49.7311 35.5903 54.2342C33.4862 47.3941 22.4982 43.4423 16.108 39.8941C5.08099 33.7062 0 25.4609 0 18.4112C0 10.0028 7.12273 0.49972 18.3056 0.49972C21.4949 0.471765 24.6348 1.28523 27.4065 2.85749C30.1781 4.42975 32.4827 6.70481 34.0863 9.45158C29.9716 5.08823 22.2176 2.30873 16.0456 4.61463C9.42944 7.08357 6.00834 13.9469 6.89674 18.9702C7.94099 24.8941 9.86584 29.4205 22.1709 37.6659C28.9975 42.2466 35.5435 48.3569 35.6292 53.8305C35.4578 51.1441 40.0322 46.2218 44.9184 43.9314C53.9894 39.6767 56.6078 35.7249 56.9507 31.7885C57.5507 24.8708 50.9579 20.4842 47.1628 18.9003Z" fill="#EE7203"/>
<path fill-rule="evenodd" clip-rule="evenodd" d="M31.4137 9.54522C30.6599 9.73372 29.9526 10.0733 29.3349 10.5431C28.7173 11.013 28.2022 11.6034 27.8211 12.2781C24.8442 17.4179 31.6319 26.7191 44.5369 17.1617C44.5692 17.1333 44.5911 17.0951 44.5993 17.053C46.4072 1.52504 35.0685 -0.276207 31.9981 5.07317C31.6028 5.73926 31.3471 6.47831 31.2467 7.24564C31.1462 8.01297 31.203 8.79263 31.4137 9.53746" fill="#009A94"/>
<path fill-rule="evenodd" clip-rule="evenodd" d="M44.5519 32.1925C44.0105 32.7496 43.361 33.191 42.6429 33.49C41.9248 33.789 41.1531 33.9393 40.3748 33.9316C34.4211 33.9316 29.7297 23.4192 44.4895 17.0605C44.5296 17.0449 44.5741 17.0449 44.6142 17.0605C59.0233 23.2717 54.9009 33.9316 48.7289 33.9316C47.9516 33.9405 47.1807 33.7908 46.4637 33.4917C45.7467 33.1926 45.0987 32.7505 44.5596 32.1925" fill="#EE7203"/>
</g>
<defs>
<clipPath id="clip0_287_2405">
<rect width="283" height="55" fill="white" transform="translate(0 0.5)"/>
</clipPath>
</defs>
</svg>
