<svg width="98" height="86" viewBox="0 0 98 86" fill="none" xmlns="http://www.w3.org/2000/svg">
<g id="&#208;&#160;&#208;&#142;&#208;&#160;&#194;&#187;&#208;&#160;&#209;&#149;&#208;&#160;&#226;&#132;&#150;_1" clip-path="url(#clip0_271_1815)">
<path id="Vector" fill-rule="evenodd" clip-rule="evenodd" d="M90.6104 14.1432C91.7868 14.4379 92.8906 14.9689 93.8546 15.7036C94.8186 16.4383 95.6225 17.3614 96.2172 18.4165C100.875 26.4532 90.282 40.997 70.1291 26.0526C70.0827 26.0051 70.0492 25.9466 70.0318 25.8826C67.2101 1.60254 84.8819 -1.21395 89.7104 7.15054C90.3267 8.19238 90.7243 9.34846 90.879 10.5485C91.0337 11.7485 90.9423 12.9674 90.6104 14.1311" fill="#F28E0A"/>
<path id="Vector_2" fill-rule="evenodd" clip-rule="evenodd" d="M74.1061 28.772C83.7265 31.2971 93.1036 38.3869 93.1401 47.1884C93.1401 54.4724 87.8617 62.7884 74.8967 68.2392C67.9277 71.1771 58.2465 76.9801 56.0451 84.0213C52.7613 73.3259 35.6125 67.1466 25.6394 61.5986C8.42981 51.923 0.5 39.0303 0.5 28.0072C0.5 14.8595 11.6163 0.000113239 29.0692 0.000113239C34.0467 -0.0435986 38.9471 1.22836 43.2728 3.68681C47.5984 6.14526 51.1952 9.70261 53.6978 13.9976C47.2761 7.17487 35.1747 2.82874 25.5421 6.43433C15.2164 10.2949 9.87712 21.0267 11.2636 28.8813C12.8934 38.1441 15.8975 45.2217 35.1017 58.1145C45.7559 65.2771 55.9722 74.8313 56.106 83.39C55.8384 79.1896 62.9776 71.4928 70.6034 67.9115C84.7603 61.2587 88.8468 55.0794 89.382 48.9244C90.3185 38.1077 80.0292 31.2486 74.1061 28.772Z" fill="#EE7203"/>
<path id="Vector_3" fill-rule="evenodd" clip-rule="evenodd" d="M49.5261 14.1432C48.3498 14.4379 47.2459 14.9689 46.2819 15.7036C45.3179 16.4383 44.514 17.3614 43.9193 18.4165C39.2733 26.4532 49.8667 40.997 70.0074 26.0526C70.0578 26.0082 70.092 25.9484 70.1047 25.8826C72.9264 1.60254 55.2302 -1.21395 50.4383 7.15054C49.8213 8.19205 49.4223 9.34766 49.2655 10.5475C49.1087 11.7473 49.1974 12.9664 49.5261 14.1311" fill="#009A94"/>
<path id="Vector_4" fill-rule="evenodd" clip-rule="evenodd" d="M70.0319 49.5557C69.1869 50.4267 68.1733 51.117 67.0525 51.5845C65.9318 52.052 64.7275 52.287 63.5129 52.275C54.2209 52.275 46.8992 35.8374 69.9346 25.8947C69.9971 25.8704 70.0666 25.8704 70.1292 25.8947C92.6172 35.6068 86.1834 52.275 76.5509 52.275C75.3378 52.2889 74.1347 52.0548 73.0157 51.5871C71.8967 51.1194 70.8854 50.4281 70.044 49.5557" fill="#EE7203"/>
</g>
<defs>
<clipPath id="clip0_271_1815">
<rect width="97" height="86" fill="white" transform="translate(0.5)"/>
</clipPath>
</defs>
</svg>
